<?xml version="1.0" encoding="UTF-8"?>
<svg xmlns="http://www.w3.org/2000/svg" xmlns:xlink="http://www.w3.org/1999/xlink" version="1.1" viewBox="0 0 596.7 460.9">
  <!-- Generator: Adobe Illustrator 29.8.0, SVG Export Plug-In . SVG Version: 2.1.1 Build 160)  -->
  <defs>
    <style>
      .st0 {
        fill: none;
      }

      .st1 {
        fill: #845fdb;
      }

      .st2 {
        fill: #8f6aee;
      }

      .st3 {
        fill: #5e3b98;
      }

      .st4 {
        fill: #4285f4;
      }

      .st5 {
        fill: #8964e3;
      }

      .st6 {
        fill: #7f5bd3;
      }

      .st7 {
        fill: #6d4ab3;
      }

      .st8 {
        fill: #8762e0;
      }

      .st9, .st10, .st11, .st12 {
        fill-rule: evenodd;
      }

      .st9, .st13 {
        fill: #fff;
      }

      .st14 {
        fill: #6e4bb5;
      }

      .st15 {
        fill: url(#Dégradé_sans_nom_6);
      }

      .st16 {
        fill: url(#Dégradé_sans_nom_4);
      }

      .st17 {
        fill: url(#Dégradé_sans_nom_2);
      }

      .st18 {
        fill: url(#Dégradé_sans_nom_3);
      }

      .st19 {
        fill: url(#Dégradé_sans_nom_8);
      }

      .st20 {
        fill: #6a47ae;
      }

      .st21 {
        fill: #8863e2;
      }

      .st22 {
        fill: #8a65e5;
      }

      .st23 {
        fill: #825dd7;
      }

      .st24 {
        fill: #704cb7;
      }

      .st25 {
        fill: #593790;
      }

      .st26 {
        fill: #936df4;
      }

      .st27 {
        fill: #8661df;
      }

      .st28 {
        fill: #fbbc05;
      }

      .st29 {
        fill: #8560dd;
      }

      .st30 {
        fill: #7b57cc;
      }

      .st31 {
        fill: #8c67e9;
      }

      .st32 {
        fill: #7c58ce;
      }

      .st33 {
        fill: #6e4ab4;
      }

      .st34 {
        fill: #efefef;
      }

      .st35 {
        fill: #7551c0;
      }

      .st36 {
        fill: #6b48af;
      }

      .st37 {
        fill: #6f4cb6;
      }

      .st38 {
        fill: #6643a7;
      }

      .st39 {
        fill: #8e69ec;
      }

      .st40 {
        fill: #906bf0;
      }

      .st41 {
        fill: #6744a9;
      }

      .st42 {
        fill: #6c48b0;
      }

      .st43 {
        fill: #5c3a96;
      }

      .st44 {
        fill: #8f69ed;
      }

      .st45 {
        fill: #9670fa;
      }

      .st46 {
        fill: #603e9d;
      }

      .st47 {
        fill: #7d59cf;
      }

      .st48 {
        fill: #7753c3;
      }

      .st49 {
        fill: #7a55c9;
      }

      .st50, .st51, .st52, .st53, .st54, .st55, .st56 {
        isolation: isolate;
      }

      .st57 {
        fill: #956ff8;
      }

      .st58 {
        fill: #7450bf;
      }

      .st59 {
        fill: #6c49b1;
      }

      .st60 {
        fill: #7e5ad1;
      }

      .st61 {
        fill: #5c3995;
      }

      .st62 {
        fill: #724ebb;
      }

      .st63 {
        fill: #815cd5;
      }

      .st64 {
        fill: #916cf2;
      }

      .st65 {
        fill: #734fbd;
      }

      .st66 {
        fill: #936ef5;
      }

      .st67 {
        clip-path: url(#clippath-1);
      }

      .st68 {
        clip-path: url(#clippath-2);
      }

      .st69 {
        fill: #6542a5;
      }

      .st70 {
        fill: #7552c1;
      }

      .st71 {
        fill: #906aef;
      }

      .st72 {
        fill: #9872fe;
      }

      .st73 {
        fill: #34a853;
      }

      .st74 {
        fill: #6946ac;
      }

      .st75 {
        fill: #6240a0;
      }

      .st76 {
        fill: #7955c8;
      }

      .st77 {
        fill: #5f3c9a;
      }

      .st78 {
        fill: #9771fb;
      }

      .st79 {
        fill: #6946ab;
      }

      .st80 {
        fill: #6d49b2;
      }

      .st81 {
        fill: #623f9f;
      }

      .st82 {
        fill: #7b57cb;
      }

      .st83 {
        fill: #704db8;
      }

      .st10 {
        fill: #00c9d0;
      }

      .st84 {
        fill: #58368f;
      }

      .st85 {
        fill: #8560dc;
      }

      .st86 {
        fill: #835fda;
      }

      .st87 {
        fill: #ea4335;
      }

      .st88 {
        fill: #8964e4;
      }

      .st51 {
        fill: url(#Dégradé_sans_nom_9);
      }

      .st51, .st52, .st53, .st54, .st55, .st56 {
        mix-blend-mode: multiply;
        opacity: .8;
      }

      .st52 {
        fill: url(#Dégradé_sans_nom_7);
      }

      .st53 {
        fill: url(#Dégradé_sans_nom_5);
      }

      .st89 {
        fill: url(#Dégradé_sans_nom);
      }

      .st90 {
        fill: #734fbc;
      }

      .st91 {
        fill: #5f3d9b;
      }

      .st92 {
        fill: #714db9;
      }

      .st93 {
        fill: #0b0c10;
      }

      .st94 {
        fill: #603d9c;
      }

      .st95 {
        fill: #6a47ad;
      }

      .st54 {
        fill: url(#Dégradé_sans_nom_15);
      }

      .st55 {
        fill: url(#Dégradé_sans_nom_13);
      }

      .st56 {
        fill: url(#Dégradé_sans_nom_11);
      }

      .st96 {
        fill: #6542a4;
      }

      .st97 {
        fill: #9973ff;
      }

      .st98 {
        fill: #6341a2;
      }

      .st99 {
        fill: #835ed9;
      }

      .st100 {
        fill: #593791;
      }

      .st11 {
        fill: #6c3483;
      }

      .st101 {
        fill: #7854c6;
      }

      .st102 {
        fill: #916bf1;
      }

      .st103 {
        fill: #8a65e6;
      }

      .st104 {
        fill: #926cf3;
      }

      .st105 {
        fill: #5d3b97;
      }

      .st106 {
        fill: #7c58cd;
      }

      .st107 {
        fill: #8863e1;
      }

      .st108 {
        fill: url(#Dégradé_sans_nom_10);
      }

      .st109 {
        fill: url(#Dégradé_sans_nom_12);
      }

      .st110 {
        fill: url(#Dégradé_sans_nom_14);
      }

      .st111 {
        fill: url(#Dégradé_sans_nom_16);
      }

      .st112 {
        fill: #946ff7;
      }

      .st113 {
        fill: #7e59d0;
      }

      .st114 {
        fill: #805bd4;
      }

      .st115 {
        fill: #5b3994;
      }

      .st116 {
        fill: #57358d;
      }

      .st117 {
        fill: #815dd6;
      }

      .st118 {
        fill: #9670f9;
      }

      .st119 {
        fill: #5b3893;
      }

      .st120 {
        fill: #56348b;
      }

      .st121 {
        fill: #7a56ca;
      }

      .st122 {
        fill: #7450be;
      }

      .st123 {
        fill: #6744a8;
      }

      .st124 {
        fill: #7f5ad2;
      }

      .st125 {
        fill: #8d67ea;
      }

      .st126 {
        fill: #7652c2;
      }

      .st127 {
        fill: #9771fc;
      }

      .st128 {
        fill: #825ed8;
      }

      .st129 {
        fill: #6441a3;
      }

      .st130 {
        fill: #6845aa;
      }

      .st12 {
        fill: #ff1753;
      }

      .st131 {
        fill: #6643a6;
      }

      .st132 {
        fill: #8d68eb;
      }

      .st133 {
        fill: #8661de;
      }

      .st134 {
        fill: #613e9e;
      }

      .st135 {
        fill: #7854c7;
      }

      .st136 {
        fill: #5e3c99;
      }

      .st137 {
        fill: #57358c;
      }

      .st138 {
        fill: #6340a1;
      }

      .st139 {
        fill: #58368e;
      }

      .st140 {
        fill: #5a3892;
      }

      .st141 {
        clip-path: url(#clippath);
      }

      .st142 {
        fill: #8b66e7;
      }

      .st143 {
        fill: #9872fd;
      }

      .st144 {
        fill: #946ef6;
      }

      .st145 {
        fill: #714eba;
      }

      .st146 {
        fill: #7753c4;
      }

      .st147 {
        fill: #8c66e8;
      }
    </style>
    <linearGradient id="Dégradé_sans_nom" data-name="Dégradé sans nom" x1="220.6" y1="385.9" x2="371.3" y2="385.9" gradientTransform="translate(0 461.3) scale(1 -1)" gradientUnits="userSpaceOnUse">
      <stop offset="0" stop-color="#563491"/>
      <stop offset="1" stop-color="#000"/>
    </linearGradient>
    <linearGradient id="Dégradé_sans_nom_2" data-name="Dégradé sans nom 2" x1="295.9" y1="310.6" x2="295.9" y2="461.3" gradientTransform="translate(0 461.3) scale(1 -1)" gradientUnits="userSpaceOnUse">
      <stop offset=".1" stop-color="#56348b"/>
      <stop offset="1" stop-color="#9973ff"/>
    </linearGradient>
    <linearGradient id="Dégradé_sans_nom_3" data-name="Dégradé sans nom 3" x1="295.8" y1="285" x2="295.9" y2="285" gradientTransform="translate(0 461.3) scale(1 -1)" gradientUnits="userSpaceOnUse">
      <stop offset=".1" stop-color="#56348b"/>
      <stop offset="1" stop-color="#9973ff"/>
    </linearGradient>
    <linearGradient id="Dégradé_sans_nom_4" data-name="Dégradé sans nom 4" x1="295.8" y1="205.1" x2="295.9" y2="205.1" gradientTransform="translate(0 461.3) scale(1 -1)" gradientUnits="userSpaceOnUse">
      <stop offset=".1" stop-color="#56348b"/>
      <stop offset="1" stop-color="#9973ff"/>
    </linearGradient>
    <clipPath id="clippath">
      <path class="st0" d="M292.9,150v52.1c0,.1,0,.2-.1.3v-52.4h.1Z"/>
    </clipPath>
    <clipPath id="clippath-1">
      <path class="st0" d="M292.9,209.4v93.5h-.1v-93.3c0,0,0-.1.1-.2Z"/>
    </clipPath>
    <clipPath id="clippath-2">
      <path class="st0" d="M559.1,266.8v110.9h-3v-110.8c0-.6,0-1.2-.1-1.8-1.4-19.7-18.3-35.2-38.3-35.2h-70.1c17.5,7.1,21.6,15.9,21.6,22.3.2,19.5.8,53.4.8,53.8h-3c0-.3-.6-34.2-.8-53.7-.1-12.1-17.3-19.2-27.8-22.3h-72.5c12.3,6.2,18.7,15.6,18.7,27.4v120.4h-3v-120.4c0-15.6-12.6-23.5-23.2-27.4h-33.3c-12.4,0-22.2-6.8-29.2-20.2,0,0,0-.1-.1-.2v93.5h-2.9v-93.5c0,0,0,.1-.1.2-7,13.5-16.8,20.2-29.2,20.2h-33.3c-10.7,3.9-23.2,11.8-23.2,27.4v120.4h-3v-120.4c0-11.8,6.4-21.2,18.7-27.4h-72.5c-10.4,3.2-27.7,10.2-27.8,22.4-.2,19.5-.8,53.5-.8,53.8h-3c0-.4.7-34.3.8-53.8,0-6.5,4.1-15.2,21.6-22.3h-70.1c-20.1,0-36.9,15.4-38.3,35.2,0,.6,0,1.2-.1,1.8v110.8h-3v-110.9c0-.7,0-1.3.1-1.9,1.6-21.3,19.7-38,41.3-38h192.6c12.8,0,22.6-8.2,29.2-24.4,0,0,0-.2.1-.3v-52.1h2.9v52.1c0,.1,0,.2.1.3,6.6,16.2,16.4,24.4,29.2,24.4h192.6c21.6,0,39.8,16.7,41.3,38,0,.6,0,1.2.1,1.9Z"/>
    </clipPath>
    <radialGradient id="Dégradé_sans_nom_5" data-name="Dégradé sans nom 5" cx="483.1" cy="111.5" fx="483.1" fy="111.5" r="29.7" gradientTransform="translate(0 461.3) scale(1 -1)" gradientUnits="userSpaceOnUse">
      <stop offset="0" stop-color="#000057"/>
      <stop offset=".4" stop-color="#7474a4" stop-opacity=".5"/>
      <stop offset=".8" stop-color="#d8d8e5" stop-opacity=".2"/>
      <stop offset="1" stop-color="#fff" stop-opacity="0"/>
    </radialGradient>
    <linearGradient id="Dégradé_sans_nom_6" data-name="Dégradé sans nom 6" x1="458.1" y1="141.8" x2="491.9" y2="108.1" gradientTransform="translate(0 461.3) scale(1 -1)" gradientUnits="userSpaceOnUse">
      <stop offset="0" stop-color="#1677f1"/>
      <stop offset=".2" stop-color="#176ee9"/>
      <stop offset=".5" stop-color="#1d55d3"/>
      <stop offset=".8" stop-color="#252eb0"/>
      <stop offset="1" stop-color="#2b189c"/>
    </linearGradient>
    <radialGradient id="Dégradé_sans_nom_7" data-name="Dégradé sans nom 7" cx="127.9" cy="110.5" fx="127.9" fy="110.5" r="29.7" gradientTransform="translate(0 461.3) scale(1 -1)" gradientUnits="userSpaceOnUse">
      <stop offset="0" stop-color="#000057"/>
      <stop offset=".4" stop-color="#7474a4" stop-opacity=".5"/>
      <stop offset=".8" stop-color="#d8d8e5" stop-opacity=".2"/>
      <stop offset="1" stop-color="#fff" stop-opacity="0"/>
    </radialGradient>
    <linearGradient id="Dégradé_sans_nom_8" data-name="Dégradé sans nom 8" x1="103.1" y1="140.8" x2="136.8" y2="107.1" gradientTransform="translate(0 461.3) scale(1 -1)" gradientUnits="userSpaceOnUse">
      <stop offset="0" stop-color="#ffe185"/>
      <stop offset=".2" stop-color="#ffbb36"/>
      <stop offset=".4" stop-color="#ff5176"/>
      <stop offset=".5" stop-color="#f63395"/>
      <stop offset=".7" stop-color="#a436d2"/>
      <stop offset="1" stop-color="#5f4eed"/>
    </linearGradient>
    <radialGradient id="Dégradé_sans_nom_9" data-name="Dégradé sans nom 9" cx="301.4" cy="110.5" fx="301.4" fy="110.5" r="29.7" gradientTransform="translate(0 461.3) scale(1 -1)" gradientUnits="userSpaceOnUse">
      <stop offset="0" stop-color="#000057"/>
      <stop offset=".4" stop-color="#7474a4" stop-opacity=".5"/>
      <stop offset=".8" stop-color="#d8d8e5" stop-opacity=".2"/>
      <stop offset="1" stop-color="#fff" stop-opacity="0"/>
    </radialGradient>
    <linearGradient id="Dégradé_sans_nom_10" data-name="Dégradé sans nom 10" x1="276.6" y1="140.8" x2="310.3" y2="107.1" gradientTransform="translate(0 461.3) scale(1 -1)" gradientUnits="userSpaceOnUse">
      <stop offset="0" stop-color="#23004a"/>
      <stop offset="1" stop-color="#010003"/>
      <stop offset="1" stop-color="#000"/>
    </linearGradient>
    <radialGradient id="Dégradé_sans_nom_11" data-name="Dégradé sans nom 11" cx="390.5" cy="39.4" fx="390.5" fy="39.4" r="29.7" gradientTransform="translate(0 461.3) scale(1 -1)" gradientUnits="userSpaceOnUse">
      <stop offset="0" stop-color="#000057"/>
      <stop offset=".4" stop-color="#7474a4" stop-opacity=".5"/>
      <stop offset=".8" stop-color="#d8d8e5" stop-opacity=".2"/>
      <stop offset="1" stop-color="#fff" stop-opacity="0"/>
    </radialGradient>
    <linearGradient id="Dégradé_sans_nom_12" data-name="Dégradé sans nom 12" x1="365.7" y1="68.4" x2="399.4" y2="34.7" gradientTransform="translate(0 461.3) scale(1 -1)" gradientUnits="userSpaceOnUse">
      <stop offset="0" stop-color="#00fb73"/>
      <stop offset="1" stop-color="#00b25b"/>
    </linearGradient>
    <radialGradient id="Dégradé_sans_nom_13" data-name="Dégradé sans nom 13" cx="38.4" cy="39.4" fx="38.4" fy="39.4" r="29.7" gradientTransform="translate(0 461.3) scale(1 -1)" gradientUnits="userSpaceOnUse">
      <stop offset="0" stop-color="#000057"/>
      <stop offset=".4" stop-color="#7474a4" stop-opacity=".5"/>
      <stop offset=".8" stop-color="#d8d8e5" stop-opacity=".2"/>
      <stop offset="1" stop-color="#fff" stop-opacity="0"/>
    </radialGradient>
    <linearGradient id="Dégradé_sans_nom_14" data-name="Dégradé sans nom 14" x1="13.4" y1="68.4" x2="47.1" y2="34.7" gradientTransform="translate(-21.8 380.2) rotate(89.1) scale(1 -1)" gradientUnits="userSpaceOnUse">
      <stop offset="0" stop-color="#fffa00"/>
      <stop offset="1" stop-color="#ffbb36"/>
    </linearGradient>
    <radialGradient id="Dégradé_sans_nom_15" data-name="Dégradé sans nom 15" cx="567" cy="36.2" fx="567" fy="36.2" r="29.7" gradientTransform="translate(0 461.3) scale(1 -1)" gradientUnits="userSpaceOnUse">
      <stop offset="0" stop-color="#000057"/>
      <stop offset=".4" stop-color="#7474a4" stop-opacity=".5"/>
      <stop offset=".8" stop-color="#d8d8e5" stop-opacity=".2"/>
      <stop offset="1" stop-color="#fff" stop-opacity="0"/>
    </radialGradient>
    <linearGradient id="Dégradé_sans_nom_16" data-name="Dégradé sans nom 16" x1="542.1" y1="65.3" x2="575.8" y2="31.6" gradientTransform="translate(0 461.3) scale(1 -1)" gradientUnits="userSpaceOnUse">
      <stop offset="0" stop-color="red"/>
      <stop offset="1" stop-color="#9b0000"/>
    </linearGradient>
  </defs>
  <g class="st50">
    <g id="Calque_1">
      <g>
        <g id="uuid-bffa628f-ce9a-45db-b338-6bb2d2eb0438">
          <path class="st11" d="M269.9,13.5c-14.6,6.1-26.5,17.2-33.7,31.3-7.2,14.1-9.2,30.3-5.6,45.7,3.6,15.4,12.5,29.1,25.1,38.6,12.7,9.5,28.3,14.2,44.1,13.3,15.8-.9,30.8-7.4,42.3-18.2,11.5-10.9,18.8-25.5,20.6-41.2,1.8-15.7-2-31.6-10.8-44.7-1.3-1.9-.8-4.5,1.1-5.7,1.9-1.3,4.5-.8,5.7,1.2,9.8,14.8,14.1,32.6,12.1,50.2s-10.2,34-23.1,46.2c-12.9,12.2-29.7,19.5-47.5,20.5-17.7,1-35.3-4.3-49.5-14.9-14.2-10.7-24.2-26-28.2-43.3-4-17.3-1.8-35.5,6.3-51.3,8.1-15.8,21.5-28.3,37.9-35.2,16.4-6.9,34.7-7.8,51.6-2.5,2.2.7,3.4,3,2.7,5.2-.7,2.2-3,3.4-5.2,2.7-15.1-4.7-31.4-3.9-46,2.2h0ZM344.2,19.1c0,2.4-2,4.4-4.4,4.4s-4.4-2-4.4-4.4,2-4.4,4.4-4.4,4.4,2,4.4,4.4ZM297.4,61.7c3.8-3.8,8.5-5.8,14-5.8s10.1,1.9,14,5.8c3.9,3.9,5.8,8.5,5.8,14v15.7c0,2.2-1.8,4.1-4.1,4.1s-4.4-2-4.4-4.4v-15.2c0-2.8-1-5.6-2.9-7.7-2.2-2.4-4.8-3.6-7.9-3.8-3.4-.1-6.7,1.3-9,3.9-1.9,2.1-2.8,4.6-2.8,7.4v15.5c0,2.3-1.9,4.2-4.2,4.2s-4.3-1.9-4.3-4.3v-15.5c0-2.8-.9-5.3-2.8-7.4-2.3-2.6-5.6-4-9-3.9-3.1.1-5.7,1.4-7.9,3.8-1.9,2.1-2.9,4.9-2.9,7.7v15.3c0,2.3-1.9,4.2-4.2,4.2s-4.3-1.9-4.3-4.3v-15.5c0-5.5,1.9-10.1,5.8-14,3.9-3.8,8.5-5.8,14-5.8s10.1,1.9,14,5.8c.5.6,1.1,1.1,1.5,1.7.5-.6,1-1.2,1.5-1.7h0Z"/>
        </g>
        <g id="uuid-06858a2b-349a-4406-aed8-15fd32f4cc7c">
          <path class="st89" d="M269.9,13.5c-14.6,6.1-26.5,17.2-33.7,31.3-7.2,14.1-9.2,30.3-5.6,45.7,3.6,15.4,12.5,29.1,25.1,38.6,12.7,9.5,28.3,14.2,44.1,13.3,15.8-.9,30.8-7.4,42.3-18.2,11.5-10.9,18.8-25.5,20.6-41.2,1.8-15.7-2-31.6-10.8-44.7-1.3-1.9-.8-4.5,1.1-5.7,1.9-1.3,4.5-.8,5.7,1.2,9.8,14.8,14.1,32.6,12.1,50.2s-10.2,34-23.1,46.2c-12.9,12.2-29.7,19.5-47.5,20.5-17.7,1-35.3-4.3-49.5-14.9-14.2-10.7-24.2-26-28.2-43.3-4-17.3-1.8-35.5,6.3-51.3,8.1-15.8,21.5-28.3,37.9-35.2,16.4-6.9,34.7-7.8,51.6-2.5,2.2.7,3.4,3,2.7,5.2-.7,2.2-3,3.4-5.2,2.7-15.1-4.7-31.4-3.9-46,2.2h0ZM344.2,19.1c0,2.4-2,4.4-4.4,4.4s-4.4-2-4.4-4.4,2-4.4,4.4-4.4,4.4,2,4.4,4.4ZM297.4,61.7c3.8-3.8,8.5-5.8,14-5.8s10.1,1.9,14,5.8c3.9,3.9,5.8,8.5,5.8,14v15.7c0,2.2-1.8,4.1-4.1,4.1s-4.4-2-4.4-4.4v-15.2c0-2.8-1-5.6-2.9-7.7-2.2-2.4-4.8-3.6-7.9-3.8-3.4-.1-6.7,1.3-9,3.9-1.9,2.1-2.8,4.6-2.8,7.4v15.5c0,2.3-1.9,4.2-4.2,4.2s-4.3-1.9-4.3-4.3v-15.5c0-2.8-.9-5.3-2.8-7.4-2.3-2.6-5.6-4-9-3.9-3.1.1-5.7,1.4-7.9,3.8-1.9,2.1-2.9,4.9-2.9,7.7v15.3c0,2.3-1.9,4.2-4.2,4.2s-4.3-1.9-4.3-4.3v-15.5c0-5.5,1.9-10.1,5.8-14,3.9-3.8,8.5-5.8,14-5.8s10.1,1.9,14,5.8c.5.6,1.1,1.1,1.5,1.7.5-.6,1-1.2,1.5-1.7h0Z"/>
        </g>
        <g id="uuid-7114e6b2-e7da-4cc6-be14-c269e478e698">
          <path class="st17" d="M269.9,13.5c-14.6,6.1-26.5,17.2-33.7,31.3-7.2,14.1-9.2,30.3-5.6,45.7,3.6,15.4,12.5,29.1,25.1,38.6,12.7,9.5,28.3,14.2,44.1,13.3,15.8-.9,30.8-7.4,42.3-18.2,11.5-10.9,18.8-25.5,20.6-41.2,1.8-15.7-2-31.6-10.8-44.7-1.3-1.9-.8-4.5,1.1-5.7,1.9-1.3,4.5-.8,5.7,1.2,9.8,14.8,14.1,32.6,12.1,50.2s-10.2,34-23.1,46.2c-12.9,12.2-29.7,19.5-47.5,20.5-17.7,1-35.3-4.3-49.5-14.9-14.2-10.7-24.2-26-28.2-43.3-4-17.3-1.8-35.5,6.3-51.3,8.1-15.8,21.5-28.3,37.9-35.2,16.4-6.9,34.7-7.8,51.6-2.5,2.2.7,3.4,3,2.7,5.2-.7,2.2-3,3.4-5.2,2.7-15.1-4.7-31.4-3.9-46,2.2h0ZM344.2,19.1c0,2.4-2,4.4-4.4,4.4s-4.4-2-4.4-4.4,2-4.4,4.4-4.4,4.4,2,4.4,4.4ZM297.4,61.7c3.8-3.8,8.5-5.8,14-5.8s10.1,1.9,14,5.8c3.9,3.9,5.8,8.5,5.8,14v15.7c0,2.2-1.8,4.1-4.1,4.1s-4.4-2-4.4-4.4v-15.2c0-2.8-1-5.6-2.9-7.7-2.2-2.4-4.8-3.6-7.9-3.8-3.4-.1-6.7,1.3-9,3.9-1.9,2.1-2.8,4.6-2.8,7.4v15.5c0,2.3-1.9,4.2-4.2,4.2s-4.3-1.9-4.3-4.3v-15.5c0-2.8-.9-5.3-2.8-7.4-2.3-2.6-5.6-4-9-3.9-3.1.1-5.7,1.4-7.9,3.8-1.9,2.1-2.9,4.9-2.9,7.7v15.3c0,2.3-1.9,4.2-4.2,4.2s-4.3-1.9-4.3-4.3v-15.5c0-5.5,1.9-10.1,5.8-14,3.9-3.8,8.5-5.8,14-5.8s10.1,1.9,14,5.8c.5.6,1.1,1.1,1.5,1.7.5-.6,1-1.2,1.5-1.7h0Z"/>
        </g>
      </g>
      <g>
        <path class="st18" d="M295.9,150v52.4c0,0,0-.2-.1-.3v-52.1h.1Z"/>
        <path class="st16" d="M295.8,209.4c0,0,0,.1.1.2v93.3h-.1v-93.5Z"/>
      </g>
      <g>
        <path class="st93" d="M292.9,209.4v93.5h-.1v-93.3c0,0,0-.1.1-.2h0Z"/>
        <g>
          <g class="st141">
            <g>
              <rect class="st69" x="292.8" y="201.1" width=".1" height="1.4"/>
              <rect class="st96" x="292.8" y="199.1" width=".1" height="2"/>
              <rect class="st129" x="292.8" y="197.1" width=".1" height="2"/>
              <rect class="st98" x="292.8" y="195.2" width=".1" height="2"/>
              <rect class="st138" x="292.8" y="193.2" width=".1" height="2"/>
              <rect class="st75" x="292.8" y="191.3" width=".1" height="2"/>
              <rect class="st81" x="292.8" y="189.3" width=".1" height="2"/>
              <rect class="st134" x="292.8" y="187.3" width=".1" height="2"/>
              <rect class="st46" x="292.8" y="185.4" width=".1" height="2"/>
              <rect class="st94" x="292.8" y="183.4" width=".1" height="2"/>
              <rect class="st91" x="292.8" y="181.4" width=".1" height="2"/>
              <rect class="st77" x="292.8" y="179.5" width=".1" height="2"/>
              <rect class="st136" x="292.8" y="177.5" width=".1" height="2"/>
              <rect class="st3" x="292.8" y="175.6" width=".1" height="2"/>
              <rect class="st105" x="292.8" y="173.6" width=".1" height="2"/>
              <rect class="st43" x="292.8" y="171.6" width=".1" height="2"/>
              <rect class="st61" x="292.8" y="169.7" width=".1" height="2"/>
              <rect class="st115" x="292.8" y="167.7" width=".1" height="2"/>
              <rect class="st119" x="292.8" y="165.7" width=".1" height="2"/>
              <rect class="st140" x="292.8" y="163.8" width=".1" height="2"/>
              <rect class="st100" x="292.8" y="161.8" width=".1" height="2"/>
              <rect class="st25" x="292.8" y="159.9" width=".1" height="2"/>
              <rect class="st84" x="292.8" y="157.9" width=".1" height="2"/>
              <rect class="st139" x="292.8" y="155.9" width=".1" height="2"/>
              <rect class="st116" x="292.8" y="154" width=".1" height="2"/>
              <rect class="st137" x="292.8" y="152" width=".1" height="2"/>
              <rect class="st120" x="292.8" y="150" width=".1" height="2"/>
            </g>
          </g>
          <g class="st67">
            <g>
              <rect class="st99" x="292.8" y="301.1" width=".1" height="1.7"/>
              <rect class="st128" x="292.8" y="299.2" width=".1" height="2"/>
              <rect class="st23" x="292.8" y="297.2" width=".1" height="2"/>
              <rect class="st117" x="292.8" y="295.3" width=".1" height="2"/>
              <rect class="st63" x="292.8" y="293.3" width=".1" height="2"/>
              <rect class="st114" x="292.8" y="291.3" width=".1" height="2"/>
              <rect class="st6" x="292.8" y="289.4" width=".1" height="2"/>
              <rect class="st124" x="292.8" y="287.4" width=".1" height="2"/>
              <rect class="st60" x="292.8" y="285.4" width=".1" height="2"/>
              <rect class="st113" x="292.8" y="283.5" width=".1" height="2"/>
              <rect class="st47" x="292.8" y="281.5" width=".1" height="2"/>
              <rect class="st32" x="292.8" y="279.6" width=".1" height="2"/>
              <rect class="st106" x="292.8" y="277.6" width=".1" height="2"/>
              <rect class="st30" x="292.8" y="275.6" width=".1" height="2"/>
              <rect class="st82" x="292.8" y="273.7" width=".1" height="2"/>
              <rect class="st121" x="292.8" y="271.7" width=".1" height="2"/>
              <rect class="st49" x="292.8" y="269.8" width=".1" height="2"/>
              <rect class="st76" x="292.8" y="267.8" width=".1" height="2"/>
              <rect class="st135" x="292.8" y="265.8" width=".1" height="2"/>
              <rect class="st101" x="292.8" y="263.9" width=".1" height="2"/>
              <rect class="st146" x="292.8" y="261.9" width=".1" height="2"/>
              <rect class="st48" x="292.8" y="259.9" width=".1" height="2"/>
              <rect class="st126" x="292.8" y="258" width=".1" height="2"/>
              <rect class="st70" x="292.8" y="256" width=".1" height="2"/>
              <rect class="st35" x="292.8" y="254.1" width=".1" height="2"/>
              <rect class="st58" x="292.8" y="252.1" width=".1" height="2"/>
              <rect class="st122" x="292.8" y="250.1" width=".1" height="2"/>
              <rect class="st65" x="292.8" y="248.2" width=".1" height="2"/>
              <rect class="st90" x="292.8" y="246.2" width=".1" height="2"/>
              <rect class="st62" x="292.8" y="244.2" width=".1" height="2"/>
              <rect class="st145" x="292.8" y="242.3" width=".1" height="2"/>
              <rect class="st92" x="292.8" y="240.3" width=".1" height="2"/>
              <rect class="st83" x="292.8" y="238.4" width=".1" height="2"/>
              <rect class="st24" x="292.8" y="236.4" width=".1" height="2"/>
              <rect class="st37" x="292.8" y="234.4" width=".1" height="2"/>
              <rect class="st14" x="292.8" y="232.5" width=".1" height="2"/>
              <rect class="st33" x="292.8" y="230.5" width=".1" height="2"/>
              <rect class="st7" x="292.8" y="228.5" width=".1" height="2"/>
              <rect class="st80" x="292.8" y="226.6" width=".1" height="2"/>
              <rect class="st59" x="292.8" y="224.6" width=".1" height="2"/>
              <rect class="st42" x="292.8" y="222.6" width=".1" height="2"/>
              <rect class="st36" x="292.8" y="220.7" width=".1" height="2"/>
              <rect class="st20" x="292.8" y="218.7" width=".1" height="2"/>
              <rect class="st95" x="292.8" y="216.8" width=".1" height="2"/>
              <rect class="st74" x="292.8" y="214.8" width=".1" height="2"/>
              <rect class="st79" x="292.8" y="212.8" width=".1" height="2"/>
              <rect class="st130" x="292.8" y="210.9" width=".1" height="2"/>
              <rect class="st41" x="292.8" y="209.4" width=".1" height="1.5"/>
            </g>
          </g>
        </g>
        <g>
          <g>
            <g class="st68">
              <g>
                <rect class="st97" x="29.6" y="375.7" width="529.5" height="2"/>
                <rect class="st72" x="29.6" y="373.8" width="529.5" height="2"/>
                <rect class="st143" x="29.6" y="371.8" width="529.5" height="2"/>
                <rect class="st127" x="29.6" y="369.8" width="529.5" height="2"/>
                <rect class="st78" x="29.6" y="367.9" width="529.5" height="2"/>
                <rect class="st45" x="29.6" y="365.9" width="529.5" height="2"/>
                <rect class="st118" x="29.6" y="363.9" width="529.5" height="2"/>
                <rect class="st57" x="29.6" y="362" width="529.5" height="2"/>
                <rect class="st112" x="29.6" y="360" width="529.5" height="2"/>
                <rect class="st144" x="29.6" y="358" width="529.5" height="2"/>
                <rect class="st66" x="29.6" y="356.1" width="529.5" height="2"/>
                <rect class="st26" x="29.6" y="354.1" width="529.5" height="2"/>
                <rect class="st104" x="29.6" y="352.2" width="529.5" height="2"/>
                <rect class="st64" x="29.6" y="350.2" width="529.5" height="2"/>
                <rect class="st102" x="29.6" y="348.2" width="529.5" height="2"/>
                <rect class="st40" x="29.6" y="346.3" width="529.5" height="2"/>
                <rect class="st71" x="29.6" y="344.3" width="529.5" height="2"/>
                <rect class="st2" x="29.6" y="342.4" width="529.5" height="2"/>
                <rect class="st44" x="29.6" y="340.4" width="529.5" height="2"/>
                <rect class="st39" x="29.6" y="338.4" width="529.5" height="2"/>
                <rect class="st132" x="29.6" y="336.5" width="529.5" height="2"/>
                <rect class="st125" x="29.6" y="334.5" width="529.5" height="2"/>
                <rect class="st31" x="29.6" y="332.5" width="529.5" height="2"/>
                <rect class="st147" x="29.6" y="330.6" width="529.5" height="2"/>
                <rect class="st142" x="29.6" y="328.6" width="529.5" height="2"/>
                <rect class="st103" x="29.6" y="326.6" width="529.5" height="2"/>
                <rect class="st22" x="29.6" y="324.7" width="529.5" height="2"/>
                <rect class="st88" x="29.6" y="322.7" width="529.5" height="2"/>
                <rect class="st5" x="29.6" y="320.8" width="529.5" height="2"/>
                <rect class="st21" x="29.6" y="318.8" width="529.5" height="2"/>
                <rect class="st107" x="29.6" y="316.8" width="529.5" height="2"/>
                <rect class="st8" x="29.6" y="314.9" width="529.5" height="2"/>
                <rect class="st27" x="29.6" y="312.9" width="529.5" height="2"/>
                <rect class="st133" x="29.6" y="311" width="529.5" height="2"/>
                <rect class="st29" x="29.6" y="309" width="529.5" height="2"/>
                <rect class="st85" x="29.6" y="307" width="529.5" height="2"/>
                <rect class="st1" x="29.6" y="305.1" width="529.5" height="2"/>
                <rect class="st86" x="29.6" y="303.1" width="529.5" height="2"/>
                <rect class="st99" x="29.6" y="301.1" width="529.5" height="2"/>
                <rect class="st128" x="29.6" y="299.2" width="529.5" height="2"/>
                <rect class="st23" x="29.6" y="297.2" width="529.5" height="2"/>
                <rect class="st117" x="29.6" y="295.3" width="529.5" height="2"/>
                <rect class="st63" x="29.6" y="293.3" width="529.5" height="2"/>
                <rect class="st114" x="29.6" y="291.3" width="529.5" height="2"/>
                <rect class="st6" x="29.6" y="289.4" width="529.5" height="2"/>
                <rect class="st124" x="29.6" y="287.4" width="529.5" height="2"/>
                <rect class="st60" x="29.6" y="285.4" width="529.5" height="2"/>
                <rect class="st113" x="29.6" y="283.5" width="529.5" height="2"/>
                <rect class="st47" x="29.6" y="281.5" width="529.5" height="2"/>
                <rect class="st32" x="29.6" y="279.6" width="529.5" height="2"/>
                <rect class="st106" x="29.6" y="277.6" width="529.5" height="2"/>
                <rect class="st30" x="29.6" y="275.6" width="529.5" height="2"/>
                <rect class="st82" x="29.6" y="273.7" width="529.5" height="2"/>
                <rect class="st121" x="29.6" y="271.7" width="529.5" height="2"/>
                <rect class="st49" x="29.6" y="269.8" width="529.5" height="2"/>
                <rect class="st76" x="29.6" y="267.8" width="529.5" height="2"/>
                <rect class="st135" x="29.6" y="265.8" width="529.5" height="2"/>
                <rect class="st101" x="29.6" y="263.9" width="529.5" height="2"/>
                <rect class="st146" x="29.6" y="261.9" width="529.5" height="2"/>
                <rect class="st48" x="29.6" y="259.9" width="529.5" height="2"/>
                <rect class="st126" x="29.6" y="258" width="529.5" height="2"/>
                <rect class="st70" x="29.6" y="256" width="529.5" height="2"/>
                <rect class="st35" x="29.6" y="254.1" width="529.5" height="2"/>
                <rect class="st58" x="29.6" y="252.1" width="529.5" height="2"/>
                <rect class="st122" x="29.6" y="250.1" width="529.5" height="2"/>
                <rect class="st65" x="29.6" y="248.2" width="529.5" height="2"/>
                <rect class="st90" x="29.6" y="246.2" width="529.5" height="2"/>
                <rect class="st62" x="29.6" y="244.2" width="529.5" height="2"/>
                <rect class="st145" x="29.6" y="242.3" width="529.5" height="2"/>
                <rect class="st92" x="29.6" y="240.3" width="529.5" height="2"/>
                <rect class="st83" x="29.6" y="238.4" width="529.5" height="2"/>
                <rect class="st24" x="29.6" y="236.4" width="529.5" height="2"/>
                <rect class="st37" x="29.6" y="234.4" width="529.5" height="2"/>
                <rect class="st14" x="29.6" y="232.5" width="529.5" height="2"/>
                <rect class="st33" x="29.6" y="230.5" width="529.5" height="2"/>
                <rect class="st7" x="29.6" y="228.5" width="529.5" height="2"/>
                <rect class="st80" x="29.6" y="226.6" width="529.5" height="2"/>
                <rect class="st59" x="29.6" y="224.6" width="529.5" height="2"/>
                <rect class="st42" x="29.6" y="222.6" width="529.5" height="2"/>
                <rect class="st36" x="29.6" y="220.7" width="529.5" height="2"/>
                <rect class="st20" x="29.6" y="218.7" width="529.5" height="2"/>
                <rect class="st95" x="29.6" y="216.8" width="529.5" height="2"/>
                <rect class="st74" x="29.6" y="214.8" width="529.5" height="2"/>
                <rect class="st79" x="29.6" y="212.8" width="529.5" height="2"/>
                <rect class="st130" x="29.6" y="210.9" width="529.5" height="2"/>
                <rect class="st41" x="29.6" y="208.9" width="529.5" height="2"/>
                <rect class="st123" x="29.6" y="206.9" width="529.5" height="2"/>
                <rect class="st38" x="29.6" y="205" width="529.5" height="2"/>
                <rect class="st131" x="29.6" y="203" width="529.5" height="2"/>
                <rect class="st69" x="29.6" y="201.1" width="529.5" height="2"/>
                <rect class="st96" x="29.6" y="199.1" width="529.5" height="2"/>
                <rect class="st129" x="29.6" y="197.1" width="529.5" height="2"/>
                <rect class="st98" x="29.6" y="195.2" width="529.5" height="2"/>
                <rect class="st138" x="29.6" y="193.2" width="529.5" height="2"/>
                <rect class="st75" x="29.6" y="191.3" width="529.5" height="2"/>
                <rect class="st81" x="29.6" y="189.3" width="529.5" height="2"/>
                <rect class="st134" x="29.6" y="187.3" width="529.5" height="2"/>
                <rect class="st46" x="29.6" y="185.4" width="529.5" height="2"/>
                <rect class="st94" x="29.6" y="183.4" width="529.5" height="2"/>
                <rect class="st91" x="29.6" y="181.4" width="529.5" height="2"/>
                <rect class="st77" x="29.6" y="179.5" width="529.5" height="2"/>
                <rect class="st136" x="29.6" y="177.5" width="529.5" height="2"/>
                <rect class="st3" x="29.6" y="175.6" width="529.5" height="2"/>
                <rect class="st105" x="29.6" y="173.6" width="529.5" height="2"/>
                <rect class="st43" x="29.6" y="171.6" width="529.5" height="2"/>
                <rect class="st61" x="29.6" y="169.7" width="529.5" height="2"/>
                <rect class="st115" x="29.6" y="167.7" width="529.5" height="2"/>
                <rect class="st119" x="29.6" y="165.7" width="529.5" height="2"/>
                <rect class="st140" x="29.6" y="163.8" width="529.5" height="2"/>
                <rect class="st100" x="29.6" y="161.8" width="529.5" height="2"/>
                <rect class="st25" x="29.6" y="159.9" width="529.5" height="2"/>
                <rect class="st84" x="29.6" y="157.9" width="529.5" height="2"/>
                <rect class="st139" x="29.6" y="155.9" width="529.5" height="2"/>
                <rect class="st116" x="29.6" y="154" width="529.5" height="2"/>
                <rect class="st137" x="29.6" y="152" width="529.5" height="2"/>
                <rect class="st120" x="29.6" y="150" width="529.5" height="2"/>
              </g>
            </g>
            <path class="st93" d="M292.8,209.6v93.3h.1v-93.5c0,0,0,.1-.1.2ZM292.4,204.2h0s.3-.6.3-.6c0,.2-.2.4-.3.6Z"/>
          </g>
          <polygon class="st93" points="293.3 202.3 293.3 202.3 293.1 202.6 293.3 202.3"/>
          <path class="st93" d="M292.9,209.4v93.5h-.1v-93.3c0,0,0-.1.1-.2h0Z"/>
        </g>
      </g>
      <rect class="st34" x="86.5" y="306.4" width="68.1" height="68.1" rx="13" ry="13"/>
      <rect class="st34" y="377.7" width="68.1" height="68.1" rx="13" ry="13"/>
      <rect class="st34" x="170.8" y="377.7" width="68.1" height="68.1" rx="13" ry="13"/>
      <rect class="st34" x="260.4" y="302.1" width="68.1" height="68.1" rx="13" ry="13"/>
      <rect class="st34" x="348.9" y="377.7" width="68.1" height="68.1" rx="13" ry="13"/>
      <rect class="st34" x="439.8" y="302.1" width="68.1" height="68.1" rx="13" ry="13"/>
      <rect class="st34" x="524.1" y="377.7" width="68.1" height="68.1" rx="13" ry="13"/>
      <g>
        <circle class="st53" cx="483.1" cy="349.8" r="29.7"/>
        <g>
          <circle class="st15" cx="475" cy="336.4" r="23.8"/>
          <path class="st13" d="M477.6,351.5v-13.3h4.4l.8-5.5h-5.3v-3.6c0-1.5.7-3,3.1-3h2.4v-4.7s-2.2-.4-4.2-.4c-4.3,0-7.2,2.6-7.2,7.4v4.2h-4.8v5.5h4.8v13.3h5.9,0Z"/>
        </g>
      </g>
      <g>
        <circle class="st52" cx="127.9" cy="350.8" r="29.7"/>
        <g>
          <circle class="st19" cx="119.9" cy="337.4" r="23.8"/>
          <g>
            <path class="st13" d="M126.5,329.4c-.8,0-1.4.6-1.4,1.5s.7,1.5,1.4,1.5,1.4-.6,1.4-1.5-.7-1.5-1.4-1.5Z"/>
            <path class="st13" d="M120,331.2c-3.4,0-6.1,2.7-6.1,6.1s2.7,6.1,6.1,6.1,6.1-2.7,6.1-6.1-2.7-6.1-6.1-6.1ZM120,341.3c-2.2,0-3.9-1.8-3.9-3.9s1.8-3.9,3.9-3.9,3.9,1.8,3.9,3.9-1.8,3.9-3.9,3.9Z"/>
            <path class="st13" d="M124.9,349.8h-9.9c-4.1,0-7.4-3.3-7.4-7.5v-9.9c0-4.1,3.3-7.5,7.4-7.5h9.9c4.1,0,7.4,3.3,7.4,7.5v9.9c0,4.1-3.3,7.5-7.4,7.5ZM114.9,327.3c-2.8,0-5.1,2.3-5.1,5.1v9.9c0,2.8,2.3,5.1,5.1,5.1h9.9c2.8,0,5.1-2.3,5.1-5.1v-9.9c0-2.8-2.3-5.1-5.1-5.1h-9.9Z"/>
          </g>
        </g>
      </g>
      <g>
        <circle class="st51" cx="301.4" cy="350.8" r="29.7"/>
        <g>
          <circle class="st108" cx="293.5" cy="337.4" r="23.8"/>
          <path class="st12" d="M298.5,333.6c1.7,1.2,3.9,2,6.1,2v-4.4c-.4,0-.9,0-1.3-.1v3.5c-2.3,0-4.4-.7-6.1-2v9c0,4.5-3.6,8.1-8.1,8.1s-3.2-.5-4.5-1.4c1.5,1.5,3.5,2.5,5.8,2.5,4.5,0,8.1-3.6,8.1-8.1v-9h0ZM300.1,329.2c-.9-1-1.5-2.2-1.6-3.6v-.6h-1.2c.3,1.8,1.4,3.2,2.8,4.2h0ZM287.3,344.9c-.5-.6-.8-1.4-.8-2.3,0-2.1,1.7-3.7,3.7-3.7s.8,0,1.1.2v-4.5c-.4,0-.9,0-1.3,0v3.5c-.4-.1-.8-.2-1.1-.2-2.1,0-3.7,1.7-3.7,3.7s.8,2.7,2,3.3h0Z"/>
          <path class="st9" d="M297.2,332.5c1.7,1.2,3.9,2,6.1,2v-3.5c-1.3-.3-2.4-.9-3.3-1.9-1.5-.9-2.5-2.4-2.8-4.2h-3.2v17.6c0,2-1.7,3.7-3.7,3.7s-2.3-.6-3-1.5c-1.2-.6-2-1.9-2-3.3s1.7-3.7,3.7-3.7.8,0,1.1.2v-3.5c-4.4,0-8,3.7-8,8.1s.9,4.2,2.3,5.7c1.3.9,2.9,1.4,4.5,1.4,4.5,0,8.1-3.6,8.1-8.1v-9h0Z"/>
          <path class="st10" d="M303.3,331v-.9c-1.1,0-2.3-.3-3.3-.9.9,1,2,1.6,3.3,1.9ZM297.2,325c0-.2,0-.3,0-.5v-.6h-4.4v17.6c0,2-1.7,3.7-3.7,3.7s-1.2-.1-1.7-.4c.7.9,1.8,1.5,3,1.5,2,0,3.7-1.7,3.7-3.7v-17.6h3.2ZM290.1,334.5v-1c-.4,0-.7,0-1.1,0-4.5,0-8.1,3.6-8.1,8.1s1.4,5.3,3.6,6.8c-1.4-1.5-2.3-3.5-2.3-5.7,0-4.4,3.5-8,8-8.1h0Z"/>
        </g>
      </g>
      <g>
        <circle class="st56" cx="390.5" cy="421.9" r="29.7"/>
        <g>
          <circle class="st109" cx="382.5" cy="409.7" r="23.8"/>
          <g>
            <path class="st13" d="M370.3,422l1.8-6.6c-1-1.8-1.5-3.8-1.5-5.9,0-6.7,5.5-12.1,12.1-12.1s12.1,5.5,12.1,12.1-5.5,12.1-12.1,12.1-4-.5-5.8-1.5l-6.6,1.8h0ZM377.2,417.7l.4.2c1.5.9,3.3,1.4,5,1.4,5.4,0,9.9-4.4,9.9-9.9s-4.4-9.9-9.9-9.9-9.9,4.4-9.9,9.9.5,3.6,1.4,5.1l.3.4-1,3.7,3.7-1h0Z"/>
            <path class="st9" d="M387.2,411.2c-.5-.3-1.1-.6-1.7-.4-.5.2-.7.9-1,1.2-.1.2-.3.2-.6.1-1.7-.7-3-1.8-3.9-3.4-.2-.2-.1-.4,0-.7.3-.3.6-.7.7-1.2,0-.5-.1-1-.3-1.4-.2-.5-.5-1.2-1-1.5-.5-.3-1.1-.1-1.5.2-.7.6-1.1,1.5-1.1,2.4,0,.3,0,.5.1.8.1.6.4,1.2.7,1.7.2.4.5.8.8,1.2.9,1.2,2,2.3,3.3,3.1.6.4,1.4.8,2.1,1,.8.3,1.5.5,2.4.4.9-.2,1.8-.8,2.2-1.6.1-.3.2-.6.1-.8-.1-.6-.9-.9-1.4-1.2h0Z"/>
          </g>
        </g>
      </g>
      <g>
        <circle class="st55" cx="38.4" cy="421.9" r="29.7"/>
        <g>
          <circle class="st110" cx="30.3" cy="409.7" r="23.8" transform="translate(-379.8 433.4) rotate(-89.1)"/>
          <path class="st13" d="M30.3,422.6c-1,0-2.1-.3-3.1-.9-.4-.2-.8-.5-1.2-.8l-.5-.3c-.3-.2-.7-.4-1.2-.4-.2,0-.3,0-.5,0-.4,0-.8,0-1.2.1h-.6c0,0-.2,0-.2,0-.8,0-1.3-.5-1.4-1.1,0-.5-.1-.7-1-.8-.5,0-1-.3-1.4-.4-.7-.3-1.1-.7-1.4-1.2h0v-.9l.2-.2c.2-.3.5-.5,1-.6,1.7-.3,3-1.4,4.2-3.2.4-.7.5-.9.5-1,0,0-.2-.2-1-.5-.2,0-.2,0-.3-.1-.4-.2-.8-.4-1.2-.7-.5-.4-.7-1-.6-1.6.2-.6.7-1.2,1.4-1.3.1,0,.3,0,.5,0,.4,0,.8.1,1.1.2.1,0,.2,0,.3,0,0-1-.1-2,0-3.3.1-2.4,1.3-4.3,3.3-5.5,1.4-.9,2.9-1.3,4.4-1.3s3,.4,4.4,1.3c1.9,1.1,3.1,2.8,3.3,5,.2,1.3,0,2.6,0,3.8,0,0,.2,0,.2,0,.3-.1.7-.2,1.1-.2s.6,0,.9.2c.7.3,1.1.9,1.1,1.6,0,.5-.2.9-.6,1.2s-.8.5-1.2.7l-.5.2c-.2,0-.3.1-.5.2-.2.1-.3.2-.3.2,0,0,0,0,0,.2,1.1,2.2,2.5,3.5,4.5,4,.5.1.8.3,1.1.7v.2c.1,0,.1.8.1.8h0c-.3.7-.8,1.1-1.5,1.4-.6.2-1.1.4-1.7.5-.4,0-.5.1-.5.5,0,.6-.3,1.3-1.4,1.3s-.2,0-.3,0c-.2,0-.3,0-.5,0-.4,0-.7-.1-1-.1-.9,0-1.6.2-2.3.8-.2.2-.4.3-.7.5-1.3.8-2.5,1.2-3.6,1.2h0Z"/>
          <path d="M30.3,397.5c1.4,0,2.7.4,4,1.2,1.7,1,2.8,2.5,3,4.5.2,1.3,0,2.6,0,3.9,0,.4,0,.6.3.6s.2,0,.3,0c.5-.1.9-.3,1.4-.3s.4,0,.6.1c.4.2.7.5.7,1,0,.3-.2.5-.4.7-.3.3-.8.5-1.2.6-.3.1-.6.2-.9.4-.6.3-.8.7-.5,1.3,1,2.1,2.5,3.8,4.9,4.4.3,0,.5.2.7.4v.4c-.2.5-.6.7-1.1.9s-1,.4-1.5.4c-.7,0-1.1.4-1.2,1.1,0,.6-.2.8-.7.8s-.2,0-.3,0c-.2,0-.3,0-.5,0-.4,0-.8-.1-1.1-.1-1,0-1.9.3-2.7.9-.2.2-.5.3-.7.5-1,.7-2.1,1-3.2,1s-1.9-.3-2.8-.8c-.5-.3-1.1-.7-1.6-1-.4-.3-.9-.5-1.5-.5-.2,0-.4,0-.6,0-.6,0-1.2.1-1.9.2h-.2c-.4,0-.7-.1-.7-.5,0-1-.7-1.3-1.6-1.4-.4,0-.8-.2-1.2-.4-.4-.2-.8-.4-1-.9v-.4c.2-.2.3-.4.6-.4,2.1-.4,3.5-1.8,4.6-3.6.9-1.5.8-1.8-.9-2.4-.1,0-.2,0-.3-.1-.4-.1-.7-.3-1-.6-.8-.6-.3-1.6.6-1.8.1,0,.2,0,.3,0,.5,0,1,.3,1.5.4,0,0,.1,0,.1,0,.3,0,.4-.2.4-.5-.1-1.1-.1-2.3,0-3.4.1-2.2,1.2-3.9,3-4.9,1.3-.8,2.7-1.2,4.1-1.2M30.3,396.1c-1.6,0-3.2.5-4.8,1.4-2.3,1.4-3.5,3.4-3.7,6,0,.9,0,1.7,0,2.4-.2,0-.4,0-.6,0s-.4,0-.6,0c-1,.2-1.7.9-1.9,1.8-.2.8,0,1.7.8,2.3.5.4,1,.6,1.4.8,0,0,.2,0,.3.1.2,0,.3.1.5.2,0,0-.1.2-.2.3-1,1.7-2.2,2.6-3.7,2.9-.8.1-1.2.7-1.4.9l-.3.4v1.5c.4.7,1,1.2,1.8,1.6.4.2,1,.4,1.6.5.2,0,.3,0,.4,0h0c0,1.1.9,1.9,2,1.9s.2,0,.3,0c.2,0,.4,0,.6,0,.4,0,.8-.1,1.1-.1s.3,0,.4,0c.4,0,.7.2.9.3l.5.3c.4.3.8.5,1.2.8,1.1.7,2.3,1,3.5,1s2.6-.4,3.9-1.2h.1c.2-.2.5-.4.7-.6.5-.4,1.1-.6,1.8-.6s.6,0,.9,0c.2,0,.4,0,.6,0,.2,0,.3,0,.4,0,.8,0,1.8-.3,2.1-1.8.6,0,1.2-.3,1.7-.4h.1c.9-.4,1.5-.9,1.8-1.6v-.3c.1,0,.1-1.2.1-1.2l-.3-.4c-.3-.5-.8-.8-1.5-.9-1.7-.4-2.9-1.4-3.8-3.2,0,0,0,0,.2,0,.1,0,.3-.1.4-.2h0c.4-.2,1-.4,1.5-.9.5-.5.8-1.1.9-1.7,0-.9-.6-1.8-1.5-2.2-.4-.2-.8-.2-1.1-.2s-.4,0-.6,0c0-1,0-2,0-3-.3-2.3-1.5-4.2-3.7-5.5-1.5-.9-3.1-1.4-4.7-1.4h0Z"/>
        </g>
      </g>
      <g>
        <circle class="st54" cx="567" cy="425.1" r="29.7"/>
        <g>
          <circle class="st111" cx="559" cy="412.9" r="23.8"/>
          <path class="st13" d="M570.5,409.8c0-2.8-2.3-5.1-5.1-5.1h-13c-2.8,0-5.1,2.3-5.1,5.1v6c0,2.8,2.3,5.1,5.1,5.1h13c2.8,0,5.1-2.3,5.1-5.1v-6ZM562.9,413.3l-5.8,2.9c-.2.1-1,0-1-.3v-5.9c0-.3.8-.4,1-.3l5.6,3c.2.1.5.5.2.6h0Z"/>
        </g>
      </g>
      <g>
        <path class="st4" d="M224.6,409.2c0-1.5-.1-2.9-.4-4.2h-19.3v8h11.1c-.5,2.6-1.9,4.7-4.1,6.2v5.2h6.7c3.9-3.6,6.1-8.8,6.1-15.1Z"/>
        <path class="st73" d="M204.9,429.2c5.5,0,10.2-1.8,13.6-5l-6.7-5.2c-1.8,1.2-4.2,2-6.9,2-5.3,0-9.9-3.6-11.5-8.5h-6.8v5.3c3.4,6.7,10.3,11.3,18.3,11.3Z"/>
        <path class="st28" d="M193.4,412.6c-.4-1.2-.7-2.5-.7-3.9s.2-2.7.7-3.9v-5.3h-6.8c-1.4,2.8-2.2,5.9-2.2,9.2s.8,6.4,2.2,9.2l5.3-4.1s1.5-1.2,1.5-1.2Z"/>
        <path class="st87" d="M204.9,396.3c3,0,5.7,1,7.9,3.1l5.9-5.9c-3.6-3.3-8.2-5.4-13.7-5.4-8,0-15,4.6-18.3,11.3l6.8,5.3c1.6-4.9,6.2-8.5,11.5-8.5Z"/>
        <path class="st0" d="M184.3,388.2h41.1v41.1h-41.1v-41.1Z"/>
      </g>
    </g>
  </g>
</svg>