<?xml version="1.0" encoding="UTF-8"?>
<svg id="Calque_2" data-name="Calque 2" xmlns="http://www.w3.org/2000/svg" xmlns:xlink="http://www.w3.org/1999/xlink" viewBox="0 0 341.36 87.94">
  <defs>
    <style>
      .cls-1 {
        fill: url(#Dégradé_sans_nom_192);
      }

      .cls-2 {
        fill: #563491;
      }

      .cls-3 {
        fill: #6c3483;
        fill-rule: evenodd;
      }

      .cls-4 {
        fill: url(#Dégradé_sans_nom_192-2);
      }
    </style>
    <linearGradient id="Dégradé_sans_nom_192" data-name="Dégradé sans nom 192" x1="225.6" y1="74.86" x2="225.6" y2="13.08" gradientTransform="translate(0 4.77)" gradientUnits="userSpaceOnUse">
      <stop offset=".13" stop-color="#56348b"/>
      <stop offset="1" stop-color="#9973ff"/>
    </linearGradient>
    <linearGradient id="Dégradé_sans_nom_192-2" data-name="Dégradé sans nom 192" x1="43.97" y1="87.94" x2="43.97" y2="0" gradientTransform="matrix(1,0,0,1,0,0)" xlink:href="#Dégradé_sans_nom_192"/>
  </defs>
  <g id="Calque_1-2" data-name="Calque 1">
    <g>
      <g>
        <g>
          <path class="cls-2" d="M112.93,65.57c-.89,0-1.62-.29-2.2-.88-.58-.58-.88-1.32-.88-2.2v-26.85c0-.92.29-1.67.88-2.23.58-.56,1.32-.84,2.2-.84s1.67.28,2.23.84c.56.56.84,1.31.84,2.23v26.85c0,.89-.28,1.62-.84,2.2-.56.58-1.31.88-2.23.88ZM133.08,65.57c-.89,0-1.62-.29-2.2-.88-.58-.58-.88-1.32-.88-2.2v-17.26c0-2.53-.62-4.41-1.87-5.64-1.25-1.23-2.88-1.84-4.89-1.84s-3.82.72-5.19,2.17c-1.37,1.45-2.05,3.3-2.05,5.55h-3.8c0-2.61.52-4.92,1.57-6.91,1.05-1.99,2.49-3.55,4.34-4.68,1.85-1.13,3.96-1.69,6.34-1.69s4.32.5,6.09,1.51c1.77,1.01,3.15,2.48,4.13,4.43.99,1.95,1.48,4.31,1.48,7.09v17.26c0,.89-.28,1.62-.84,2.2-.56.58-1.31.88-2.23.88ZM153.17,65.57c-.89,0-1.62-.29-2.2-.88-.58-.58-.88-1.32-.88-2.2v-17.26c0-2.53-.62-4.41-1.87-5.64-1.25-1.23-2.88-1.84-4.89-1.84s-3.81.72-5.16,2.17c-1.35,1.45-2.02,3.3-2.02,5.55h-5.01c0-2.61.56-4.92,1.69-6.91,1.13-1.99,2.7-3.55,4.74-4.68,2.03-1.13,4.35-1.69,6.97-1.69,2.29,0,4.32.5,6.09,1.51,1.77,1.01,3.15,2.48,4.13,4.43.99,1.95,1.48,4.31,1.48,7.09v17.26c0,.89-.28,1.62-.84,2.2-.56.58-1.31.88-2.23.88Z"/>
          <path class="cls-2" d="M170.13,27.14c-1.09,0-2.02-.39-2.81-1.18-.78-.78-1.18-1.72-1.18-2.81s.39-2.02,1.18-2.81c.78-.78,1.72-1.18,2.81-1.18s2.02.39,2.81,1.18,1.18,1.72,1.18,2.81-.39,2.02-1.18,2.81-1.72,1.18-2.81,1.18ZM170.13,65.51c-.89,0-1.62-.29-2.2-.88-.58-.58-.88-1.32-.88-2.2v-26.85c0-.92.29-1.67.88-2.23.58-.56,1.32-.84,2.2-.84s1.67.28,2.23.84c.56.56.84,1.31.84,2.23v26.85c0,.89-.28,1.62-.84,2.2-.56.58-1.31.88-2.23.88Z"/>
          <path class="cls-2" d="M200.23,66.11c-2.57,0-5.03-.4-7.36-1.21-2.33-.8-4.37-1.93-6.09-3.38-1.73-1.45-3-3.12-3.8-5.01-.4-.84-.39-1.63.03-2.35s1.14-1.19,2.14-1.39c.72-.16,1.44-.05,2.14.33.7.38,1.24.96,1.6,1.72.48,1.01,1.28,1.93,2.38,2.78,1.11.84,2.44,1.53,4.01,2.05,1.57.52,3.22.78,4.95.78,1.93,0,3.71-.3,5.34-.9,1.63-.6,2.95-1.48,3.95-2.62,1-1.15,1.51-2.56,1.51-4.25,0-2.13-.84-4.04-2.5-5.73-1.67-1.69-4.42-2.73-8.24-3.14-4.99-.48-8.91-1.95-11.77-4.4-2.86-2.45-4.28-5.49-4.28-9.11,0-2.65.74-4.91,2.23-6.76,1.49-1.85,3.51-3.26,6.06-4.22,2.55-.97,5.4-1.45,8.54-1.45,2.45,0,4.6.34,6.43,1.03,1.83.68,3.43,1.63,4.8,2.84,1.37,1.21,2.55,2.63,3.56,4.28.56.89.79,1.72.69,2.5-.1.78-.49,1.4-1.18,1.84-.76.48-1.59.58-2.47.3-.89-.28-1.55-.8-1.99-1.57-.64-1.17-1.43-2.15-2.35-2.96-.93-.8-2.01-1.44-3.26-1.9-1.25-.46-2.72-.69-4.4-.69-2.98-.04-5.47.51-7.48,1.66-2.01,1.15-3.02,2.91-3.02,5.28,0,1.21.31,2.36.94,3.47.62,1.11,1.77,2.06,3.44,2.87,1.67.81,4.07,1.37,7.21,1.69,4.79.48,8.52,1.94,11.19,4.37,2.67,2.43,4.01,5.64,4.01,9.62,0,2.29-.47,4.28-1.42,5.97-.95,1.69-2.21,3.11-3.8,4.25-1.59,1.15-3.4,2-5.43,2.56-2.03.56-4.13.84-6.31.84Z"/>
          <path class="cls-2" d="M229.25,53.5c-.89,0-1.62-.29-2.2-.88-.58-.58-.88-1.32-.88-2.2v-28.96c0-.93.29-1.67.88-2.23.58-.56,1.32-.84,2.2-.84s1.67.28,2.23.84c.56.56.84,1.31.84,2.23v28.96c0,.89-.28,1.62-.84,2.2-.56.58-1.31.88-2.23.88ZM229.25,65.57c-.89,0-1.62-.29-2.2-.88-.58-.58-.88-1.32-.88-2.2v-26.91c0-.92.29-1.67.88-2.23.58-.56,1.32-.84,2.2-.84s1.67.28,2.23.84c.56.56.84,1.31.84,2.23v26.91c0,.89-.28,1.62-.84,2.2-.56.58-1.31.88-2.23.88ZM254.05,65.57c-.89,0-1.62-.29-2.2-.88-.58-.58-.88-1.32-.88-2.2v-14.84c0-2.29-.42-4.16-1.27-5.61-.84-1.45-1.98-2.52-3.41-3.23-1.43-.7-3.07-1.06-4.92-1.06-1.69,0-3.22.34-4.59,1.03-1.37.68-2.45,1.6-3.26,2.75-.81,1.15-1.21,2.46-1.21,3.95h-3.8c0-2.53.61-4.8,1.84-6.79,1.23-1.99,2.91-3.57,5.04-4.74,2.13-1.17,4.53-1.75,7.18-1.75s5.26.59,7.45,1.78c2.19,1.19,3.92,2.93,5.19,5.22s1.9,5.11,1.9,8.45v14.84c0,.89-.29,1.62-.88,2.2-.58.58-1.32.88-2.2.88Z"/>
          <path class="cls-2" d="M282.35,65.75c-3.26,0-6.13-.71-8.63-2.14-2.49-1.43-4.46-3.4-5.88-5.91-1.43-2.51-2.14-5.4-2.14-8.66s.71-6.2,2.14-8.72c1.43-2.51,3.39-4.48,5.88-5.91,2.49-1.43,5.37-2.14,8.63-2.14s6.07.71,8.57,2.14c2.49,1.43,4.45,3.4,5.88,5.91,1.43,2.51,2.14,5.42,2.14,8.72s-.7,6.14-2.11,8.66c-1.41,2.51-3.36,4.49-5.85,5.91-2.49,1.43-5.37,2.14-8.63,2.14ZM282.35,60.32c2.09,0,3.94-.48,5.55-1.45,1.61-.97,2.87-2.29,3.77-3.98.9-1.69,1.36-3.64,1.36-5.85s-.45-4.17-1.36-5.88c-.91-1.71-2.16-3.05-3.77-4.01-1.61-.97-3.46-1.45-5.55-1.45s-3.94.48-5.55,1.45c-1.61.97-2.88,2.3-3.8,4.01-.93,1.71-1.39,3.67-1.39,5.88s.46,4.16,1.39,5.85c.92,1.69,2.19,3.02,3.8,3.98,1.61.97,3.46,1.45,5.55,1.45Z"/>
          <path class="cls-2" d="M311.19,79.63c-.89,0-1.62-.29-2.2-.88-.58-.58-.88-1.32-.88-2.2v-27.51c.04-3.18.78-6.03,2.23-8.57,1.45-2.53,3.42-4.53,5.91-6,2.49-1.47,5.31-2.2,8.45-2.2s6.01.73,8.51,2.2c2.49,1.47,4.47,3.47,5.94,6,1.47,2.53,2.2,5.39,2.2,8.57s-.67,6.02-2.02,8.54c-1.35,2.51-3.19,4.51-5.52,5.97-2.33,1.47-4.97,2.2-7.9,2.2-2.37,0-4.56-.49-6.55-1.48-1.99-.99-3.69-2.32-5.1-4.01v16.29c0,.88-.28,1.62-.84,2.2-.56.58-1.31.88-2.23.88ZM324.71,60.32c2.05,0,3.88-.49,5.49-1.48,1.61-.99,2.89-2.33,3.83-4.04.94-1.71,1.42-3.63,1.42-5.76s-.47-4.11-1.42-5.82c-.95-1.71-2.22-3.06-3.83-4.04-1.61-.99-3.44-1.48-5.49-1.48s-3.83.49-5.46,1.48c-1.63.99-2.91,2.33-3.83,4.04-.93,1.71-1.39,3.65-1.39,5.82s.46,4.05,1.39,5.76c.92,1.71,2.2,3.06,3.83,4.04,1.63.99,3.45,1.48,5.46,1.48Z"/>
        </g>
        <g>
          <path class="cls-1" d="M112.93,65.57c-.89,0-1.62-.29-2.2-.88-.58-.58-.88-1.32-.88-2.2v-26.85c0-.92.29-1.67.88-2.23.58-.56,1.32-.84,2.2-.84s1.67.28,2.23.84c.56.56.84,1.31.84,2.23v26.85c0,.89-.28,1.62-.84,2.2-.56.58-1.31.88-2.23.88ZM133.08,65.57c-.89,0-1.62-.29-2.2-.88-.58-.58-.88-1.32-.88-2.2v-17.26c0-2.53-.62-4.41-1.87-5.64-1.25-1.23-2.88-1.84-4.89-1.84s-3.82.72-5.19,2.17c-1.37,1.45-2.05,3.3-2.05,5.55h-3.8c0-2.61.52-4.92,1.57-6.91,1.05-1.99,2.49-3.55,4.34-4.68,1.85-1.13,3.96-1.69,6.34-1.69s4.32.5,6.09,1.51c1.77,1.01,3.15,2.48,4.13,4.43.99,1.95,1.48,4.31,1.48,7.09v17.26c0,.89-.28,1.62-.84,2.2-.56.58-1.31.88-2.23.88ZM153.17,65.57c-.89,0-1.62-.29-2.2-.88-.58-.58-.88-1.32-.88-2.2v-17.26c0-2.53-.62-4.41-1.87-5.64-1.25-1.23-2.88-1.84-4.89-1.84s-3.81.72-5.16,2.17c-1.35,1.45-2.02,3.3-2.02,5.55h-5.01c0-2.61.56-4.92,1.69-6.91,1.13-1.99,2.7-3.55,4.74-4.68,2.03-1.13,4.35-1.69,6.97-1.69,2.29,0,4.32.5,6.09,1.51,1.77,1.01,3.15,2.48,4.13,4.43.99,1.95,1.48,4.31,1.48,7.09v17.26c0,.89-.28,1.62-.84,2.2-.56.58-1.31.88-2.23.88Z"/>
          <path class="cls-1" d="M170.13,27.14c-1.09,0-2.02-.39-2.81-1.18-.78-.78-1.18-1.72-1.18-2.81s.39-2.02,1.18-2.81c.78-.78,1.72-1.18,2.81-1.18s2.02.39,2.81,1.18,1.18,1.72,1.18,2.81-.39,2.02-1.18,2.81-1.72,1.18-2.81,1.18ZM170.13,65.51c-.89,0-1.62-.29-2.2-.88-.58-.58-.88-1.32-.88-2.2v-26.85c0-.92.29-1.67.88-2.23.58-.56,1.32-.84,2.2-.84s1.67.28,2.23.84c.56.56.84,1.31.84,2.23v26.85c0,.89-.28,1.62-.84,2.2-.56.58-1.31.88-2.23.88Z"/>
          <path class="cls-1" d="M200.23,66.11c-2.57,0-5.03-.4-7.36-1.21-2.33-.8-4.37-1.93-6.09-3.38-1.73-1.45-3-3.12-3.8-5.01-.4-.84-.39-1.63.03-2.35s1.14-1.19,2.14-1.39c.72-.16,1.44-.05,2.14.33.7.38,1.24.96,1.6,1.72.48,1.01,1.28,1.93,2.38,2.78,1.11.84,2.44,1.53,4.01,2.05,1.57.52,3.22.78,4.95.78,1.93,0,3.71-.3,5.34-.9,1.63-.6,2.95-1.48,3.95-2.62,1-1.15,1.51-2.56,1.51-4.25,0-2.13-.84-4.04-2.5-5.73-1.67-1.69-4.42-2.73-8.24-3.14-4.99-.48-8.91-1.95-11.77-4.4-2.86-2.45-4.28-5.49-4.28-9.11,0-2.65.74-4.91,2.23-6.76,1.49-1.85,3.51-3.26,6.06-4.22,2.55-.97,5.4-1.45,8.54-1.45,2.45,0,4.6.34,6.43,1.03,1.83.68,3.43,1.63,4.8,2.84,1.37,1.21,2.55,2.63,3.56,4.28.56.89.79,1.72.69,2.5-.1.78-.49,1.4-1.18,1.84-.76.48-1.59.58-2.47.3-.89-.28-1.55-.8-1.99-1.57-.64-1.17-1.43-2.15-2.35-2.96-.93-.8-2.01-1.44-3.26-1.9-1.25-.46-2.72-.69-4.4-.69-2.98-.04-5.47.51-7.48,1.66-2.01,1.15-3.02,2.91-3.02,5.28,0,1.21.31,2.36.94,3.47.62,1.11,1.77,2.06,3.44,2.87,1.67.81,4.07,1.37,7.21,1.69,4.79.48,8.52,1.94,11.19,4.37,2.67,2.43,4.01,5.64,4.01,9.62,0,2.29-.47,4.28-1.42,5.97-.95,1.69-2.21,3.11-3.8,4.25-1.59,1.15-3.4,2-5.43,2.56-2.03.56-4.13.84-6.31.84Z"/>
          <path class="cls-1" d="M229.25,53.5c-.89,0-1.62-.29-2.2-.88-.58-.58-.88-1.32-.88-2.2v-28.96c0-.93.29-1.67.88-2.23.58-.56,1.32-.84,2.2-.84s1.67.28,2.23.84c.56.56.84,1.31.84,2.23v28.96c0,.89-.28,1.62-.84,2.2-.56.58-1.31.88-2.23.88ZM229.25,65.57c-.89,0-1.62-.29-2.2-.88-.58-.58-.88-1.32-.88-2.2v-26.91c0-.92.29-1.67.88-2.23.58-.56,1.32-.84,2.2-.84s1.67.28,2.23.84c.56.56.84,1.31.84,2.23v26.91c0,.89-.28,1.62-.84,2.2-.56.58-1.31.88-2.23.88ZM254.05,65.57c-.89,0-1.62-.29-2.2-.88-.58-.58-.88-1.32-.88-2.2v-14.84c0-2.29-.42-4.16-1.27-5.61-.84-1.45-1.98-2.52-3.41-3.23-1.43-.7-3.07-1.06-4.92-1.06-1.69,0-3.22.34-4.59,1.03-1.37.68-2.45,1.6-3.26,2.75-.81,1.15-1.21,2.46-1.21,3.95h-3.8c0-2.53.61-4.8,1.84-6.79,1.23-1.99,2.91-3.57,5.04-4.74,2.13-1.17,4.53-1.75,7.18-1.75s5.26.59,7.45,1.78c2.19,1.19,3.92,2.93,5.19,5.22s1.9,5.11,1.9,8.45v14.84c0,.89-.29,1.62-.88,2.2-.58.58-1.32.88-2.2.88Z"/>
          <path class="cls-1" d="M282.35,65.75c-3.26,0-6.13-.71-8.63-2.14-2.49-1.43-4.46-3.4-5.88-5.91-1.43-2.51-2.14-5.4-2.14-8.66s.71-6.2,2.14-8.72c1.43-2.51,3.39-4.48,5.88-5.91,2.49-1.43,5.37-2.14,8.63-2.14s6.07.71,8.57,2.14c2.49,1.43,4.45,3.4,5.88,5.91,1.43,2.51,2.14,5.42,2.14,8.72s-.7,6.14-2.11,8.66c-1.41,2.51-3.36,4.49-5.85,5.91-2.49,1.43-5.37,2.14-8.63,2.14ZM282.35,60.32c2.09,0,3.94-.48,5.55-1.45,1.61-.97,2.87-2.29,3.77-3.98.9-1.69,1.36-3.64,1.36-5.85s-.45-4.17-1.36-5.88c-.91-1.71-2.16-3.05-3.77-4.01-1.61-.97-3.46-1.45-5.55-1.45s-3.94.48-5.55,1.45c-1.61.97-2.88,2.3-3.8,4.01-.93,1.71-1.39,3.67-1.39,5.88s.46,4.16,1.39,5.85c.92,1.69,2.19,3.02,3.8,3.98,1.61.97,3.46,1.45,5.55,1.45Z"/>
          <path class="cls-1" d="M311.19,79.63c-.89,0-1.62-.29-2.2-.88-.58-.58-.88-1.32-.88-2.2v-27.51c.04-3.18.78-6.03,2.23-8.57,1.45-2.53,3.42-4.53,5.91-6,2.49-1.47,5.31-2.2,8.45-2.2s6.01.73,8.51,2.2c2.49,1.47,4.47,3.47,5.94,6,1.47,2.53,2.2,5.39,2.2,8.57s-.67,6.02-2.02,8.54c-1.35,2.51-3.19,4.51-5.52,5.97-2.33,1.47-4.97,2.2-7.9,2.2-2.37,0-4.56-.49-6.55-1.48-1.99-.99-3.69-2.32-5.1-4.01v16.29c0,.88-.28,1.62-.84,2.2-.56.58-1.31.88-2.23.88ZM324.71,60.32c2.05,0,3.88-.49,5.49-1.48,1.61-.99,2.89-2.33,3.83-4.04.94-1.71,1.42-3.63,1.42-5.76s-.47-4.11-1.42-5.82c-.95-1.71-2.22-3.06-3.83-4.04-1.61-.99-3.44-1.48-5.49-1.48s-3.83.49-5.46,1.48c-1.63.99-2.91,2.33-3.83,4.04-.93,1.71-1.39,3.65-1.39,5.82s.46,4.05,1.39,5.76c.92,1.71,2.2,3.06,3.83,4.04,1.63.99,3.45,1.48,5.46,1.48Z"/>
        </g>
      </g>
      <g>
        <g id="uuid-a474cf7b-3d90-4999-9c38-537014a4e01e" data-name="Calque 1-2">
          <path class="cls-3" d="M28.78,7.87c-8.51,3.58-15.48,10.05-19.69,18.28-4.2,8.22-5.36,17.67-3.28,26.66,2.09,9,7.28,16.97,14.68,22.5,7.39,5.54,16.5,8.28,25.72,7.75s17.95-4.3,24.66-10.65c6.71-6.35,10.96-14.86,12-24.04,1.04-9.18-1.2-18.42-6.31-26.11-.74-1.11-.44-2.6.67-3.33,1.11-.74,2.6-.44,3.33.67,5.75,8.63,8.26,19.01,7.09,29.32-1.17,10.3-5.94,19.86-13.47,26.99-7.53,7.13-17.34,11.36-27.69,11.96-10.35.6-20.58-2.49-28.88-8.7-8.3-6.21-14.14-15.16-16.48-25.26C-1.21,43.8.1,33.2,4.81,23.96,9.53,14.73,17.36,7.46,26.92,3.44,36.47-.58,47.14-1.09,57.04,1.99c1.27.39,1.97,1.74,1.58,3.01-.39,1.27-1.74,1.97-3.01,1.58-8.82-2.75-18.32-2.29-26.83,1.29h0ZM72.13,11.16c0,1.42-1.15,2.58-2.58,2.58s-2.58-1.15-2.58-2.58,1.15-2.58,2.58-2.58,2.58,1.15,2.58,2.58ZM44.82,35.98c2.24-2.25,4.96-3.37,8.15-3.37s5.9,1.12,8.15,3.37c2.25,2.25,3.36,4.96,3.36,8.15v9.15c0,1.31-1.06,2.37-2.37,2.37-1.41,0-2.56-1.15-2.56-2.57v-8.84c0-1.65-.56-3.28-1.67-4.5-1.27-1.39-2.81-2.12-4.63-2.19-1.99-.07-3.93.76-5.25,2.25-1.08,1.22-1.62,2.66-1.62,4.32v9.07c0,1.35-1.09,2.45-2.45,2.45s-2.48-1.11-2.48-2.49v-9.03c0-1.66-.54-3.11-1.62-4.32-1.32-1.49-3.26-2.33-5.25-2.25-1.81.07-3.35.8-4.62,2.19-1.12,1.22-1.68,2.85-1.68,4.5v8.96c0,1.35-1.1,2.45-2.45,2.45s-2.48-1.11-2.48-2.48v-9.03c0-3.19,1.12-5.9,3.36-8.15,2.25-2.25,4.96-3.37,8.15-3.37s5.91,1.12,8.15,3.37c.32.33.62.66.9,1,.27-.34.58-.68.9-1h0Z"/>
        </g>
        <g id="uuid-c2b14c68-78bf-4bc6-b9e7-7ba575eb1e3e" data-name="Calque 1-2">
          <path class="cls-2" d="M28.78,7.87c-8.51,3.58-15.48,10.05-19.69,18.28-4.2,8.22-5.36,17.67-3.28,26.66,2.09,9,7.28,16.97,14.68,22.5,7.39,5.54,16.5,8.28,25.72,7.75s17.95-4.3,24.66-10.65c6.71-6.35,10.96-14.86,12-24.04,1.04-9.18-1.2-18.42-6.31-26.11-.74-1.11-.44-2.6.67-3.33,1.11-.74,2.6-.44,3.33.67,5.75,8.63,8.26,19.01,7.09,29.32-1.17,10.3-5.94,19.86-13.47,26.99-7.53,7.13-17.34,11.36-27.69,11.96-10.35.6-20.58-2.49-28.88-8.7-8.3-6.21-14.14-15.16-16.48-25.26C-1.21,43.8.1,33.2,4.81,23.96,9.53,14.73,17.36,7.46,26.92,3.44,36.47-.58,47.14-1.09,57.04,1.99c1.27.39,1.97,1.74,1.58,3.01-.39,1.27-1.74,1.97-3.01,1.58-8.82-2.75-18.32-2.29-26.83,1.29h0ZM72.13,11.16c0,1.42-1.15,2.58-2.58,2.58s-2.58-1.15-2.58-2.58,1.15-2.58,2.58-2.58,2.58,1.15,2.58,2.58ZM44.82,35.98c2.24-2.25,4.96-3.37,8.15-3.37s5.9,1.12,8.15,3.37c2.25,2.25,3.36,4.96,3.36,8.15v9.15c0,1.31-1.06,2.37-2.37,2.37-1.41,0-2.56-1.15-2.56-2.57v-8.84c0-1.65-.56-3.28-1.67-4.5-1.27-1.39-2.81-2.12-4.63-2.19-1.99-.07-3.93.76-5.25,2.25-1.08,1.22-1.62,2.66-1.62,4.32v9.07c0,1.35-1.09,2.45-2.45,2.45s-2.48-1.11-2.48-2.49v-9.03c0-1.66-.54-3.11-1.62-4.32-1.32-1.49-3.26-2.33-5.25-2.25-1.81.07-3.35.8-4.62,2.19-1.12,1.22-1.68,2.85-1.68,4.5v8.96c0,1.35-1.1,2.45-2.45,2.45s-2.48-1.11-2.48-2.48v-9.03c0-3.19,1.12-5.9,3.36-8.15,2.25-2.25,4.96-3.37,8.15-3.37s5.91,1.12,8.15,3.37c.32.33.62.66.9,1,.27-.34.58-.68.9-1h0Z"/>
        </g>
        <g id="uuid-f18724f6-b7c4-4279-8cd7-d7165d161ba4" data-name="Calque 1-2">
          <path class="cls-4" d="M28.78,7.87c-8.51,3.58-15.48,10.05-19.69,18.28-4.2,8.22-5.36,17.67-3.28,26.66,2.09,9,7.28,16.97,14.68,22.5,7.39,5.54,16.5,8.28,25.72,7.75s17.95-4.3,24.66-10.65c6.71-6.35,10.96-14.86,12-24.04,1.04-9.18-1.2-18.42-6.31-26.11-.74-1.11-.44-2.6.67-3.33,1.11-.74,2.6-.44,3.33.67,5.75,8.63,8.26,19.01,7.09,29.32-1.17,10.3-5.94,19.86-13.47,26.99-7.53,7.13-17.34,11.36-27.69,11.96-10.35.6-20.58-2.49-28.88-8.7-8.3-6.21-14.14-15.16-16.48-25.26C-1.21,43.8.1,33.2,4.81,23.96,9.53,14.73,17.36,7.46,26.92,3.44,36.47-.58,47.14-1.09,57.04,1.99c1.27.39,1.97,1.74,1.58,3.01-.39,1.27-1.74,1.97-3.01,1.58-8.82-2.75-18.32-2.29-26.83,1.29h0ZM72.13,11.16c0,1.42-1.15,2.58-2.58,2.58s-2.58-1.15-2.58-2.58,1.15-2.58,2.58-2.58,2.58,1.15,2.58,2.58ZM44.82,35.98c2.24-2.25,4.96-3.37,8.15-3.37s5.9,1.12,8.15,3.37c2.25,2.25,3.36,4.96,3.36,8.15v9.15c0,1.31-1.06,2.37-2.37,2.37-1.41,0-2.56-1.15-2.56-2.57v-8.84c0-1.65-.56-3.28-1.67-4.5-1.27-1.39-2.81-2.12-4.63-2.19-1.99-.07-3.93.76-5.25,2.25-1.08,1.22-1.62,2.66-1.62,4.32v9.07c0,1.35-1.09,2.45-2.45,2.45s-2.48-1.11-2.48-2.49v-9.03c0-1.66-.54-3.11-1.62-4.32-1.32-1.49-3.26-2.33-5.25-2.25-1.81.07-3.35.8-4.62,2.19-1.12,1.22-1.68,2.85-1.68,4.5v8.96c0,1.35-1.1,2.45-2.45,2.45s-2.48-1.11-2.48-2.48v-9.03c0-3.19,1.12-5.9,3.36-8.15,2.25-2.25,4.96-3.37,8.15-3.37s5.91,1.12,8.15,3.37c.32.33.62.66.9,1,.27-.34.58-.68.9-1h0Z"/>
        </g>
      </g>
    </g>
  </g>
</svg>