<svg clip-rule="evenodd" fill-rule="evenodd" height="300" image-rendering="optimizeQuality" shape-rendering="geometricPrecision" text-rendering="geometricPrecision" viewBox="0 0 2.83333 2.83333" width="300" xmlns="http://www.w3.org/2000/svg" version="1.1" xmlns:xlink="http://www.w3.org/1999/xlink" xmlns:svgjs="http://svgjs.dev/svgjs"><g width="100%" height="100%" transform="matrix(1,0,0,1,0,0)"><g id="Layer_x0020_1"><circle cx="1.417" cy="1.417" fill="#673b8d" r="1.417" fill-opacity="0" data-original-color="#673b8dff" stroke="none" stroke-opacity="1"/><g id="_606851352"><g><path id="_606851856" d="m1.53481 2.20905c-.023752 0-.0463661-.00083465-.067437-.00215354-.0220433-.00138976-.0387953-.0203898-.0373937-.0424488.00138976-.0220433.0206929-.0386535.0424488-.0373937.112496.00708268.272819-.00124803.397854-.0813543.132331-.0847953.217331-.134591.26535-.161425.0481299-.0269055.0597402-.0622835.0524173-.077752-.00703937-.014878-.0351575-.0161811-.068374-.00314173l-.33322.130693c-.0098189.00367717-.22772.0827795-.416677-.0357087-.0620709-.0389331-.136217-.128929-.107906-.189835.0129291-.0278504.0472362-.0550079.13726-.026126.153189.0491142.219732.0378307.237193.0289449-.00543307-.00629528-.0193346-.0165315-.0443622-.0218504-.0348898-.00740157-.227323-.0831575-.265547-.0982677-.00084252-.00033465-.00169291-.00070866-.00251181-.00109843-.0101811-.00480315-.254768-.11598-.528827.0719213-.00086221.00056693-.00172047.00112598-.00261024.0016378l-.134453.0776339.204402.354039c.0773622-.0286693.213709-.0661732.321378-.0260315.0256575.00955512.0805472.0277402.159886.0419882.0217362.00391732.0361969.0247126.0322953.0464606-.00391732.0217244-.0247795.0360591-.0464488.0322953-.0633543-.0113898-.12502-.0276535-.173665-.0457913-.101256-.0377244-.25161.0193898-.295283.0378228-.0185669.00782283-.0401024.00059843-.0501811-.0168622l-.241701-.418563c-.0110394-.0191378-.00448819-.0436142.0146417-.0546535l.167776-.0968819c.304937-.208126.581106-.0892717.605815-.0778976.109173.0431457.232862.0899921.251614.0939803.0549213.0116575.0960039.0430591.107228.081937.0076811.0266535.0005.0532008-.0197087.0728268-.0484488.0470394-.159563.0444882-.321366-.00742126-.0166969-.00534646-.0282126-.00754331-.0357953-.0083622.00930709.0211417.0372953.0577283.0733661.0803701.155835.0977283.34372.0294764.345587.0287913l.332587-.130465c.0870748-.0341969.148075-.00277559.169909.0434213.0248898.0526102.00343307.131949-.0857126.181776-.0470551.0263071-.130547.0752283-.26122.158957-.118965.076248-.262213.0959882-.378606.0959882z" fill="#7c3aed" fill-opacity="1" data-original-color="#ffffffff" stroke="none" stroke-opacity="1"/></g><g><path id="_606851424" d="m2.18217 1.38964h-1.19317c-.0221024 0-.04-.0179016-.04-.04v-.68535c0-.0221024.0178976-.0400039.04-.0400039h.983276c.0220984 0 .04.0179016.04.0400039 0 .0220984-.0179016.04-.04.04h-.943283v.605346h1.11318v-.605346h-.0365709c-.0220984 0-.04-.0179016-.04-.04 0-.0221024.0179016-.0400039.04-.0400039h.0765748c.0220984 0 .04.0179016.04.0400039v.68535c0 .0220945-.0179016.04-.04.04z" fill="#7c3aed" fill-opacity="1" data-original-color="#ffffffff" stroke="none" stroke-opacity="1"/></g><g><path id="_606851184" d="m2.18217.930748h-1.19317c-.0221024 0-.04-.0179173-.04-.04 0-.0220866.0178976-.0400039.04-.0400039h1.19317c.0220984 0 .04.0179173.04.0400039 0 .0220827-.0179016.04-.04.04z" fill="#7c3aed" fill-opacity="1" data-original-color="#ffffffff" stroke="none" stroke-opacity="1"/></g><g><path id="_606851160" d="m1.26404 1.21411h-.102252c-.0221024 0-.0400039-.0179016-.0400039-.04 0-.0221024.0179016-.0400039.0400039-.0400039h.102252c.0220984 0 .04.0179016.04.0400039 0 .0220984-.0179016.04-.04.04z" fill="#7c3aed" fill-opacity="1" data-original-color="#ffffffff" stroke="none" stroke-opacity="1"/></g><g><path id="_606851064" d="m1.5035 1.21411h-.102252c-.0221024 0-.0400039-.0179016-.0400039-.04 0-.0221024.0179016-.0400039.0400039-.0400039h.102252c.0221024 0 .0400039.0179016.0400039.0400039 0 .0220984-.0179016.04-.0400039.04z" fill="#7c3aed" fill-opacity="1" data-original-color="#ffffffff" stroke="none" stroke-opacity="1"/></g><g><path id="_606851592" d="m2.00938 1.21411h-.300772c-.0221024 0-.0400039-.0179016-.0400039-.04 0-.0221024.0179016-.0400039.0400039-.0400039h.300772c.0220984 0 .04.0179016.04.0400039 0 .0220984-.0179016.04-.04.04z" fill="#7c3aed" fill-opacity="1" data-original-color="#ffffffff" stroke="none" stroke-opacity="1"/></g></g></g></g></svg>